<?xml version="1.0" encoding="iso-8859-1"?>
<!-- Generator: Adobe Illustrator 18.0.0, SVG Export Plug-In . SVG Version: 6.00 Build 0)  -->
<!DOCTYPE svg PUBLIC "-//W3C//DTD SVG 1.1//EN" "http://www.w3.org/Graphics/SVG/1.1/DTD/svg11.dtd">
<svg version="1.1" id="Capa_1" xmlns="http://www.w3.org/2000/svg" xmlns:xlink="http://www.w3.org/1999/xlink" x="0px" y="0px"
	 viewBox="0 0 486.784 486.784" style="enable-background:new 0 0 486.784 486.784;" xml:space="preserve">
<g>
	<path d="M378.313,273.775l-22.285-6.646c0-6.691-3.38-9.922-7.07-12.113l-34.188-20.315c5.146-7.719,9.728-15.803,13.497-23.881
		c13.059-2.558,25.444-14.71,31.233-31.303c7.616-21.966,1.532-43.494-13.764-50.5c3.816-12.074,12.605-47.309-4.395-73.982
		c-10.917-17.157-30.012-27.135-56.803-29.692C278.221,17.883,259.907,0,229.675,0c-16.14,0-33.218,5.2-50.733,15.444
		c-55.316,32.366-45.073,92.726-39.238,114.34c-6.727,3.652-11.872,10.314-14.202,19.119c-2.455,9.329-1.814,20.206,1.814,30.614
		c5.724,16.436,17.907,28.518,31.169,31.224c3.77,8.094,8.352,16.194,13.514,23.936l-34.234,20.339
		c-3.676,2.191-7.055,6.547-7.055,12.129l-22.238,6.63c-13.231,3.941-22.286,16.094-22.286,29.887v25.915
		c0,86.822,70.377,157.207,157.207,157.207c86.829,0,157.207-70.385,157.207-157.207v-25.915
		C400.599,289.869,391.543,277.716,378.313,273.775z M340.512,267.403l-47.575,62.651l-32.654-50.469
		c17.296-4.973,32.546-16.945,45.025-32.068L340.512,267.403z M187.042,29.269c15.014-8.789,29.371-13.254,42.633-13.254
		c28.73,0,43.541,20.699,44.136,21.551c1.375,2.017,3.612,3.292,6.052,3.464c23.271,1.611,39.412,9.204,47.951,22.56
		c12.308,19.275,6.887,48.549,3.54,60.302c-34.841-8.088-72.275-44.796-72.683-45.187c-1.657-1.634-3.957-2.534-6.27-2.268
		c-2.316,0.188-4.443,1.384-5.818,3.261c-20.284,27.846-72.817,41.711-91.553,45.886C149.852,107.607,140.266,56.623,187.042,29.269
		z M171.247,200.106c-1.267-2.924-4.489-4.81-7.679-4.81c-6.695,0-16.375-7.373-21.129-21.041
		c-2.55-7.335-3.081-15.084-1.455-21.263c0.797-2.979,2.799-8.218,7.461-9.837c0.5-0.172,1.484-0.274,1.97-0.321
		c0.046-0.008,0.078-0.031,0.125-0.039c0.173-0.016,0.328-0.016,0.485-0.039c3.064-0.54,70.893-12.77,102.797-46.754
		c13.247,11.683,46.49,37.844,81.871,46.468c0.002,0.001,2.153,0.517,2.661,0.685c7.083,2.471,11.307,15.858,6.02,31.1
		c-4.769,13.668-14.466,21.041-21.347,21.041c-3.831,0.369-6.193,1.847-7.491,4.81c-13.936,31.967-40.21,66.123-72.145,66.123
		C211.456,266.229,185.182,232.073,171.247,200.106z M260.11,325.847l-4.879,4.308h-24.053l-4.88-4.308l8.507-30.129l8.555-12.785
		l7.991,12.785L260.11,325.847z M181.569,247.626c12.464,15.076,27.682,27.017,44.963,31.967l-32.482,50.805l-48.107-61.62
		L181.569,247.626z M243.704,464.959c-0.61,0-1.173-0.367-1.407-0.931l-16.734-39.536l9.102-60.917h18.08l9.102,60.917
		l-16.734,39.52C244.877,464.592,244.315,464.959,243.704,464.959z M384.584,329.577c0,73.841-57.006,134.522-129.306,140.59
		c0.279-0.494,0.656-0.923,0.89-1.454l18.065-42.649l-11.136-74.499h-38.785l-11.136,74.499l18.064,42.649
		c0.234,0.547,0.61,0.985,0.907,1.486C159.548,464.435,102.2,403.637,102.2,329.577v-25.915c0-6.763,4.362-12.605,10.854-14.537
		l24.101-7.186l44.696,58.859c2.832,3.738,7.319,5.974,11.996,5.974l0.564-0.016c4.91-0.179,9.429-2.743,12.104-6.874l6.382-9.852
		l13.731,12.136h33.155l13.95-12.315l6.491,10.04c2.674,4.122,7.193,6.686,12.103,6.865l0.564,0.016
		c4.677,0,9.165-2.236,11.995-5.965l44.697-58.883l24.163,7.202c6.475,1.931,10.839,7.773,10.839,14.537V329.577z"/>
</g>
<g>
</g>
<g>
</g>
<g>
</g>
<g>
</g>
<g>
</g>
<g>
</g>
<g>
</g>
<g>
</g>
<g>
</g>
<g>
</g>
<g>
</g>
<g>
</g>
<g>
</g>
<g>
</g>
<g>
</g>
</svg>
