<?xml version="1.0" encoding="UTF-8" standalone="no"?>
<!-- Created with Inkscape (http://www.inkscape.org/) -->

<svg
   xmlns:dc="http://purl.org/dc/elements/1.1/"
   xmlns:cc="http://creativecommons.org/ns#"
   xmlns:rdf="http://www.w3.org/1999/02/22-rdf-syntax-ns#"
   xmlns:svg="http://www.w3.org/2000/svg"
   xmlns="http://www.w3.org/2000/svg"
   xmlns:sodipodi="http://sodipodi.sourceforge.net/DTD/sodipodi-0.dtd"
   xmlns:inkscape="http://www.inkscape.org/namespaces/inkscape"
   width="166.40921mm"
   height="135.86984mm"
   viewBox="0 0 589.63894 481.42857"
   id="svg2"
   version="1.1"
   inkscape:version="0.91 r13725"
   sodipodi:docname="brivs_2.svg">
  <defs
     id="defs4" />
  <sodipodi:namedview
     id="base"
     pagecolor="#ffffff"
     bordercolor="#666666"
     borderopacity="1.0"
     inkscape:pageopacity="0.0"
     inkscape:pageshadow="2"
     inkscape:zoom="0.49497475"
     inkscape:cx="-233.60704"
     inkscape:cy="183.41324"
     inkscape:document-units="px"
     inkscape:current-layer="layer1"
     showgrid="false"
     fit-margin-top="0"
     fit-margin-left="0"
     fit-margin-right="0"
     fit-margin-bottom="0"
     inkscape:window-width="1366"
     inkscape:window-height="705"
     inkscape:window-x="-8"
     inkscape:window-y="-8"
     inkscape:window-maximized="1" />
  <metadata
     id="metadata7">
    <rdf:RDF>
      <cc:Work
         rdf:about="">
        <dc:format>image/svg+xml</dc:format>
        <dc:type
           rdf:resource="http://purl.org/dc/dcmitype/StillImage" />
        <dc:title></dc:title>
      </cc:Work>
    </rdf:RDF>
  </metadata>
  <g
     inkscape:label="Layer 1"
     inkscape:groupmode="layer"
     id="layer1"
     transform="translate(336.19307,-184.40717)">
    <g
       id="g4202"
       transform="matrix(1.8846907,0,0,1,297.42685,0)">
      <rect
         y="184.40715"
         x="-336.19305"
         height="481.42856"
         width="312.85715"
         id="rect3396"
         style="opacity:1;fill:#f9f9f9;fill-rule:evenodd;stroke:none;stroke-width:1px;stroke-linecap:butt;stroke-linejoin:miter;stroke-opacity:1" />
      <text
         sodipodi:linespacing="125%"
         id="text3398"
         y="462.39679"
         x="-307.69797"
         style="font-style:normal;font-weight:normal;font-size:84.26042175px;line-height:125%;font-family:sans-serif;letter-spacing:0px;word-spacing:0px;fill:#cccccc;fill-opacity:1;stroke:none;stroke-width:1px;stroke-linecap:butt;stroke-linejoin:miter;stroke-opacity:1"
         xml:space="preserve"><tspan
           y="462.39679"
           x="-307.69797"
           id="tspan3400"
           sodipodi:role="line">BRĪVS</tspan></text>
    </g>
    <path
       style="color:#000000;clip-rule:nonzero;display:inline;overflow:visible;visibility:visible;opacity:1;isolation:auto;mix-blend-mode:normal;color-interpolation:sRGB;color-interpolation-filters:linearRGB;solid-color:#000000;solid-opacity:1;fill:#000000;fill-opacity:1;fill-rule:nonzero;stroke:#000000;stroke-width:2.02030516px;stroke-linecap:butt;stroke-linejoin:miter;stroke-miterlimit:4;stroke-dasharray:none;stroke-dashoffset:0;stroke-opacity:1;color-rendering:auto;image-rendering:auto;shape-rendering:auto;text-rendering:auto;enable-background:accumulate"
       d="m 69.640734,247.31126 0,-30.51221 23.96791,0 c 27.900356,0 44.173636,2.59387 49.464076,7.88431 4.99182,4.99183 2.89845,11.17443 -4.87358,14.39371 -7.01271,2.90476 -6.3347,4.22042 3.61818,7.0209 3.95786,1.11364 9.02237,4.47087 11.25445,7.4605 3.88728,5.20659 3.911,5.66058 0.56261,10.77086 -6.27646,9.57909 -15.16399,11.7812 -51.16369,12.67711 l -32.829956,0.81703 0,-30.51221 z m 66.458506,19.17722 c 5.72695,-5.18348 5.35457,-10.48817 -1.02991,-14.67143 -3.94629,-2.58572 -11.09909,-3.68361 -28.28427,-4.34142 l -23.00219,-0.88045 0,12.58885 0,12.58885 24.0321,-0.71787 c 20.15402,-0.60203 24.71828,-1.33894 28.28427,-4.56653 z m -9.07408,-28.08434 c 5.19094,-3.79571 3.4995,-11.99276 -2.83619,-13.74474 -2.77792,-0.76816 -13.00571,-1.48729 -22.72843,-1.59805 l -17.67767,-0.20138 0,9.09137 0,9.09137 19.81691,0 c 13.11811,0 21.0367,-0.89193 23.42538,-2.63857 z"
       id="path3354"
       inkscape:connector-curvature="0"
       transform="translate(-336.19305,184.40715)" />
    <path
       style="color:#000000;clip-rule:nonzero;display:inline;overflow:visible;visibility:visible;opacity:1;isolation:auto;mix-blend-mode:normal;color-interpolation:sRGB;color-interpolation-filters:linearRGB;solid-color:#000000;solid-opacity:1;fill:#000000;fill-opacity:1;fill-rule:nonzero;stroke:#000000;stroke-width:2.02030516px;stroke-linecap:butt;stroke-linejoin:miter;stroke-miterlimit:4;stroke-dasharray:none;stroke-dashoffset:0;stroke-opacity:1;color-rendering:auto;image-rendering:auto;shape-rendering:auto;text-rendering:auto;enable-background:accumulate"
       d="m 178.73721,247.10363 0,-30.30458 20.93745,0 c 34.30215,0 51.86313,5.19729 53.44363,15.81701 0.82904,5.57044 -7.76952,14.19622 -15.74058,15.79043 -3.36191,0.67239 -6.11257,1.91718 -6.11257,2.76621 0,0.84903 8.82378,6.87207 19.60839,13.38452 l 19.60838,11.84083 -8.22754,0.60809 c -7.09988,0.52474 -10.88712,-1.06745 -27.63192,-11.61676 -17.68062,-11.13887 -20.39656,-12.22484 -30.57373,-12.22484 l -11.16938,0 0,12.12183 0,12.12183 -7.07106,0 -7.07107,0 0,-30.30457 z m 50.21833,-2.22219 c 6.46287,-2.25297 9.94052,-8.95513 7.68993,-14.82009 -1.59241,-4.14973 -14.27779,-7.17702 -30.12907,-7.19012 l -13.63706,-0.0113 0,12.12183 0,12.12183 14.85082,0 c 8.16794,0 17.71936,-0.99999 21.22538,-2.22219 z"
       id="path3356"
       inkscape:connector-curvature="0"
       transform="translate(-336.19305,184.40715)" />
    <path
       style="color:#000000;clip-rule:nonzero;display:inline;overflow:visible;visibility:visible;opacity:1;isolation:auto;mix-blend-mode:normal;color-interpolation:sRGB;color-interpolation-filters:linearRGB;solid-color:#000000;solid-opacity:1;fill:#000000;fill-opacity:1;fill-rule:nonzero;stroke:#000000;stroke-width:2.02030516px;stroke-linecap:butt;stroke-linejoin:miter;stroke-miterlimit:4;stroke-dasharray:none;stroke-dashoffset:0;stroke-opacity:1;color-rendering:auto;image-rendering:auto;shape-rendering:auto;text-rendering:auto;enable-background:accumulate"
       d="m 283.79307,274.37775 c 0,-2.18867 2.24479,-3.03046 8.08122,-3.03046 l 8.08122,0 0,-24.24366 0,-24.24366 -8.08122,0 c -5.83643,0 -8.08122,-0.8418 -8.08122,-3.03046 0,-2.51008 3.81613,-3.03046 22.22336,-3.03046 18.40722,0 22.22335,0.52038 22.22335,3.03046 0,2.11651 -2.13254,3.03046 -7.07106,3.03046 l -7.07107,0 0,24.24366 0,24.24366 7.07107,0 c 4.93852,0 7.07106,0.91395 7.07106,3.03046 0,2.51007 -3.81613,3.03045 -22.22335,3.03045 -18.40723,0 -22.22336,-0.52038 -22.22336,-3.03045 z"
       id="path3358"
       inkscape:connector-curvature="0"
       transform="translate(-336.19305,184.40715)" />
    <path
       style="color:#000000;clip-rule:nonzero;display:inline;overflow:visible;visibility:visible;opacity:1;isolation:auto;mix-blend-mode:normal;color-interpolation:sRGB;color-interpolation-filters:linearRGB;solid-color:#000000;solid-opacity:1;fill:#000000;fill-opacity:1;fill-rule:nonzero;stroke:#000000;stroke-width:2.02030516px;stroke-linecap:butt;stroke-linejoin:miter;stroke-miterlimit:4;stroke-dasharray:none;stroke-dashoffset:0;stroke-opacity:1;color-rendering:auto;image-rendering:auto;shape-rendering:auto;text-rendering:auto;enable-background:accumulate"
       d="m 281.77277,204.67722 c 0,-1.23912 9.7648,-2.0203 25.25381,-2.0203 15.48901,0 25.25381,0.78118 25.25381,2.0203 0,1.23912 -9.7648,2.02031 -25.25381,2.02031 -15.48901,0 -25.25381,-0.78119 -25.25381,-2.02031 z"
       id="path3360"
       inkscape:connector-curvature="0"
       transform="translate(-336.19305,184.40715)" />
    <path
       style="color:#000000;clip-rule:nonzero;display:inline;overflow:visible;visibility:visible;opacity:1;isolation:auto;mix-blend-mode:normal;color-interpolation:sRGB;color-interpolation-filters:linearRGB;solid-color:#000000;solid-opacity:1;fill:#000000;fill-opacity:1;fill-rule:nonzero;stroke:#000000;stroke-width:2.02030516px;stroke-linecap:butt;stroke-linejoin:miter;stroke-miterlimit:4;stroke-dasharray:none;stroke-dashoffset:0;stroke-opacity:1;color-rendering:auto;image-rendering:auto;shape-rendering:auto;text-rendering:auto;enable-background:accumulate"
       d="m 363.21807,247.02036 -20.58011,-30.22131 7.65177,0 c 7.58575,0 7.80959,0.23744 25.93925,27.51466 l 18.28748,27.51465 18.41515,-27.51465 c 17.84991,-26.6701 18.63419,-27.51466 25.5509,-27.51466 5.35523,0 6.73262,0.65968 5.52013,2.64378 -0.88859,1.45408 -10.1773,15.09114 -20.64158,30.30458 l -19.02596,27.66079 -10.26847,-0.0833 -10.26846,-0.0833 -20.5801,-30.22131 z"
       id="path3362"
       inkscape:connector-curvature="0"
       transform="translate(-336.19305,184.40715)" />
    <path
       style="color:#000000;clip-rule:nonzero;display:inline;overflow:visible;visibility:visible;opacity:1;isolation:auto;mix-blend-mode:normal;color-interpolation:sRGB;color-interpolation-filters:linearRGB;solid-color:#000000;solid-opacity:1;fill:#000000;fill-opacity:1;fill-rule:nonzero;stroke:#000000;stroke-width:2.02030516px;stroke-linecap:butt;stroke-linejoin:miter;stroke-miterlimit:4;stroke-dasharray:none;stroke-dashoffset:0;stroke-opacity:1;color-rendering:auto;image-rendering:auto;shape-rendering:auto;text-rendering:auto;enable-background:accumulate"
       d="m 483.74388,277.3029 c -8.36642,-0.74789 -17.23051,-2.00056 -19.69797,-2.7837 -5.52024,-1.75205 -6.45361,-10.07605 -0.95076,-8.47907 16.02726,4.65127 23.97326,5.87333 38.89087,5.98121 19.3165,0.13971 28.91623,-3.11754 29.9221,-10.15273 0.91973,-6.43274 -4.52902,-8.44826 -31.40837,-11.61811 -27.59531,-3.25427 -33.42992,-5.11773 -38.03637,-12.14807 -3.10627,-4.74076 -3.11495,-5.52787 -0.11151,-10.1117 4.74609,-7.24345 20.35752,-11.21485 43.53637,-11.07525 26.96522,0.16241 35.33524,1.86237 36.11953,7.3359 0.61718,4.30734 0.4781,4.32815 -10.10152,1.51201 -13.36086,-3.55647 -43.30613,-3.73432 -50.12328,-0.29769 -6.36612,3.20927 -7.68934,10.52273 -2.41463,13.34567 2.14032,1.14547 12.42329,3.049 22.85104,4.23007 34.43798,3.90052 44.21335,7.73889 44.21335,17.36066 0,12.90237 -26.74812,20.11362 -62.68885,16.9008 z"
       id="path3364"
       inkscape:connector-curvature="0"
       transform="translate(-336.19305,184.40715)" />
  </g>
</svg>
