<?xml version="1.0" encoding="UTF-8" standalone="no"?>
<!-- Created with Inkscape (http://www.inkscape.org/) -->

<svg
   xmlns:dc="http://purl.org/dc/elements/1.1/"
   xmlns:cc="http://creativecommons.org/ns#"
   xmlns:rdf="http://www.w3.org/1999/02/22-rdf-syntax-ns#"
   xmlns:svg="http://www.w3.org/2000/svg"
   xmlns="http://www.w3.org/2000/svg"
   xmlns:sodipodi="http://sodipodi.sourceforge.net/DTD/sodipodi-0.dtd"
   xmlns:inkscape="http://www.inkscape.org/namespaces/inkscape"
   id="svg2"
   height="40.576mm"
   width="54.839mm"
   version="1.1"
   viewBox="0 0 194.311 143.775"
   sodipodi:docname="CHILD.svg"
   inkscape:version="0.92.2 (5c3e80d, 2017-08-06)">
  <sodipodi:namedview
     pagecolor="#ffffff"
     bordercolor="#666666"
     borderopacity="1"
     objecttolerance="10"
     gridtolerance="10"
     guidetolerance="10"
     inkscape:pageopacity="0"
     inkscape:pageshadow="2"
     inkscape:window-width="1152"
     inkscape:window-height="756"
     id="namedview23"
     showgrid="false"
     inkscape:zoom="1.3702231"
     inkscape:cx="106.55199"
     inkscape:cy="18.294404"
     inkscape:window-x="464"
     inkscape:window-y="76"
     inkscape:window-maximized="0"
     inkscape:current-layer="svg2" />
  <defs
     id="defs4">
    <clipPath
       id="clipPath4355"
       clipPathUnits="userSpaceOnUse">
      <rect
         id="rect4357"
         opacity="0.07"
         height="167.18"
         width="177.28"
         stroke="#000"
         y="596.78"
         x="244.96"
         fill="none" />
    </clipPath>
  </defs>
  <metadata
     id="metadata7">
    <rdf:RDF>
      <cc:Work
         rdf:about="">
        <dc:format>image/svg+xml</dc:format>
        <dc:type
           rdf:resource="http://purl.org/dc/dcmitype/StillImage" />
        <dc:title></dc:title>
      </cc:Work>
    </rdf:RDF>
  </metadata>
  <g
     id="layer1"
     transform="translate(-324.99 -418.33)">
    <path
       id="path3337-6"
       d="m518.23 507.36-21.582-39.247h0.207v-36.316c0-7.426-6.041-13.467-13.467-13.467h-122.48c-7.426 0-13.467 6.041-13.467 13.467v36.316h0.207l-21.583 39.247h192.17zm-143.5-52.24c0-4.354 3.543-7.897 7.897-7.897h77.615c5.135 0 9.313 4.177 9.313 9.312v1.68c0 5.134-4.178 9.312-9.313 9.312h-76.2c-5.135 0-9.312-4.177-9.312-9.312v-3.095zm-17.96 12.994h13.091c3.133 4.474 8.316 7.412 14.181 7.412h76.201c5.864 0 11.048-2.938 14.181-7.412h13.091l17.183 31.247h-165.11l17.183-31.247zm162.53 45.606v36.763c0 6.408-5.213 11.622-11.621 11.622h-171.07c-6.408-0.001-11.622-5.214-11.622-11.623v-36.763h194.31z" />
    <g
       id="g4342"
       clip-path="url(#clipPath4355)">
      <path
         id="path3337"
         d="m551.8 698.99-21.582-39.247h0.207v-36.316c0-7.426-6.041-13.467-13.467-13.467h-122.48c-7.426 0-13.467 6.041-13.467 13.467v36.316h0.207l-21.583 39.247h192.17zm-143.5-52.24c0-4.354 3.543-7.897 7.897-7.897h77.615c5.135 0 9.313 4.177 9.313 9.312v1.68c0 5.134-4.178 9.312-9.313 9.312h-76.2c-5.135 0-9.312-4.177-9.312-9.312v-3.095zm-17.96 12.994h13.091c3.133 4.474 8.316 7.412 14.181 7.412h76.201c5.864 0 11.048-2.938 14.181-7.412h13.091l17.183 31.247h-165.11l17.183-31.247zm162.53 45.606v36.763c0 6.408-5.213 11.622-11.621 11.622h-171.07c-6.408-0.001-11.622-5.214-11.622-11.623v-36.763h194.31z" />
      <path
         id="path3337-9"
         d="m483.23 698.99-21.582-39.247h0.207v-36.316c0-7.426-6.041-13.467-13.467-13.467h-122.48c-7.426 0-13.467 6.041-13.467 13.467v36.316h0.207l-21.583 39.247h192.17zm-143.5-52.24c0-4.354 3.543-7.897 7.897-7.897h77.615c5.135 0 9.313 4.177 9.313 9.312v1.68c0 5.134-4.178 9.312-9.313 9.312h-76.2c-5.135 0-9.312-4.177-9.312-9.312v-3.095zm-17.96 12.994h13.091c3.133 4.474 8.316 7.412 14.181 7.412h76.201c5.864 0 11.048-2.938 14.181-7.412h13.091l17.183 31.247h-165.11l17.183-31.247zm162.53 45.606v36.763c0 6.408-5.213 11.622-11.621 11.622h-171.07c-6.408-0.001-11.622-5.214-11.622-11.623v-36.763h194.31z" />
      <rect
         id="rect3446"
         fill-rule="evenodd"
         height="24.526"
         width="175.54"
         y="666.41"
         x="334.82"
         fill="#fff" />
      <rect
         id="rect4248"
         height="23.739"
         width="41.164"
         y="637.19"
         x="400.02" />
      <g
         fill="#fff"
         id="g18">
        <ellipse
           id="path4269"
           rx="8.5714"
           ry="10.179"
           cy="648.97"
           cx="400.18" />
        <ellipse
           id="path4269-3"
           rx="8.5714"
           ry="10.179"
           cy="648.97"
           cx="347.14" />
        <ellipse
           id="path4269-0"
           rx="8.5714"
           ry="10.179"
           cy="648.97"
           cx="494.91" />
        <ellipse
           id="path4269-3-4"
           rx="8.5714"
           ry="10.179"
           cy="648.97"
           cx="441.88" />
        <rect
           id="rect4304"
           height="20.329"
           width="53.286"
           y="638.83"
           x="346.99" />
        <rect
           id="rect4304-8"
           height="20.329"
           width="54.422"
           y="638.77"
           x="441.06" />
        <rect
           id="rect4321"
           height=".50508"
           width="179.05"
           y="666.99"
           x="332.09" />
      </g>
    </g>
  </g>
  <rect
     style="fill:#ffffff;fill-opacity:1;stroke:#ffffff;stroke-width:0.4845247;stroke-miterlimit:4;stroke-dasharray:none;stroke-opacity:1"
     id="rect4523"
     width="120.39939"
     height="41.500271"
     x="39.471519"
     y="70.59169" />
  <g
     aria-label="BĒRNS"
     style="font-style:normal;font-weight:normal;font-size:37.50046158px;line-height:1.25;font-family:sans-serif;letter-spacing:0px;word-spacing:0px;fill:#000000;fill-opacity:1;stroke:none;stroke-width:0.93751156"
     id="text4521">
    <path
       d="M 43.914559,80.972013 H 55.56021 q 3.131142,0 4.705868,0.769052 1.574727,0.769053 2.60013,2.197293 1.025403,1.42824 1.025403,3.479047 0,4.156545 -4.50445,5.548164 2.60013,0.585944 3.900195,2.325468 1.300065,1.739523 1.300065,3.79033 0,2.801543 -2.12405,4.852353 -2.12405,2.0325 -6.903161,2.0325 H 43.914559 Z m 5.841136,4.412896 v 5.474921 h 4.431207 q 2.435333,0 3.057899,-0.95216 0.640877,-0.970471 0.640877,-1.849388 0,-0.95216 -0.531012,-1.629659 -0.512702,-0.695809 -1.135268,-0.860606 -0.622567,-0.183108 -2.453644,-0.183108 z m 0,9.924439 v 6.024242 h 4.50445 q 2.307157,0 3.259318,-0.80567 0.95216,-0.805676 0.95216,-2.252227 0,-1.208511 -0.915539,-2.087428 -0.915539,-0.878917 -3.039588,-0.878917 z"
       style="font-style:normal;font-variant:normal;font-weight:normal;font-stretch:normal;font-size:37.50046158px;font-family:'Franklin Gothic Demi';-inkscape-font-specification:'Franklin Gothic Demi, Normal';font-variant-ligatures:normal;font-variant-caps:normal;font-variant-numeric:normal;font-feature-settings:normal;text-align:start;writing-mode:lr-tb;text-anchor:start;fill:#000000;stroke-width:0.93751156"
       id="path4525" />
    <path
       d="M 86.230754,85.732814 H 74.310441 v 5.127016 h 9.375115 v 4.705868 h -9.375115 v 5.456612 h 11.920313 v 4.94391 H 68.35944 V 80.972013 H 86.230754 Z M 82.843261,74.98439 v 2.618441 H 71.600447 V 74.98439 Z"
       style="font-style:normal;font-variant:normal;font-weight:normal;font-stretch:normal;font-size:37.50046158px;font-family:'Franklin Gothic Demi';-inkscape-font-specification:'Franklin Gothic Demi, Normal';font-variant-ligatures:normal;font-variant-caps:normal;font-variant-numeric:normal;font-feature-settings:normal;text-align:start;writing-mode:lr-tb;text-anchor:start;fill:#000000;stroke-width:0.93751156"
       id="path4527" />
    <path
       d="m 95.660801,96.060089 v 9.906131 H 89.764733 V 80.972013 H 100.7512 q 3.03958,0 4.87066,0.71412 1.84939,0.695809 3.0579,2.581819 1.20851,1.886009 1.20851,4.193167 0,4.50445 -4.33965,6.463702 l 4.61431,11.041399 h -6.4637 l -3.845262,-9.906131 z m 0,-10.638558 v 6.372148 h 3.588912 q 1.757837,0 2.545197,-0.23804 0.80567,-0.256351 1.42824,-1.098646 0.62257,-0.860606 0.62257,-1.959253 0,-1.043714 -0.62257,-1.867698 -0.62257,-0.823985 -1.355,-1.007093 -0.73243,-0.201418 -2.746613,-0.201418 z"
       style="font-style:normal;font-variant:normal;font-weight:normal;font-stretch:normal;font-size:37.50046158px;font-family:'Franklin Gothic Demi';-inkscape-font-specification:'Franklin Gothic Demi, Normal';font-variant-ligatures:normal;font-variant-caps:normal;font-variant-numeric:normal;font-feature-settings:normal;text-align:start;writing-mode:lr-tb;text-anchor:start;fill:#000000;stroke-width:0.93751156"
       id="path4529" />
    <path
       d="m 133.69228,80.972013 v 24.994207 h -4.99884 l -9.79627,-16.882535 q 0.0183,0.640877 0.0366,0.842296 0.0733,0.640877 0.0733,1.080335 v 14.959904 h -4.55938 V 80.972013 h 6.31721 l 8.51451,14.740172 q -0.10986,-1.098647 -0.10986,-1.666281 V 80.972013 Z"
       style="font-style:normal;font-variant:normal;font-weight:normal;font-stretch:normal;font-size:37.50046158px;font-family:'Franklin Gothic Demi';-inkscape-font-specification:'Franklin Gothic Demi, Normal';font-variant-ligatures:normal;font-variant-caps:normal;font-variant-numeric:normal;font-feature-settings:normal;text-align:start;writing-mode:lr-tb;text-anchor:start;fill:#000000;stroke-width:0.93751156"
       id="path4531" />
    <path
       d="m 155.95817,86.465245 -4.98053,1.66628 q -1.00709,-2.966345 -4.26641,-2.966345 -3.47904,0 -3.47904,2.252225 0,0.897228 0.64088,1.519794 0.65918,0.622566 2.94803,1.080335 3.82695,0.769053 5.6031,1.556416 1.77614,0.787363 2.98465,2.545197 1.22682,1.739524 1.22682,3.900195 0,3.387488 -2.61844,5.859448 -2.60013,2.47195 -7.72714,2.47195 -3.84526,0 -6.55526,-1.73952 -2.69168,-1.75783 -3.55229,-5.200259 l 5.41999,-1.226822 q 0.91554,3.497361 5.09039,3.497361 2.01419,0 3.00297,-0.76906 0.98878,-0.78736 0.98878,-1.867695 0,-1.098646 -0.89723,-1.702902 -0.89722,-0.604255 -3.46073,-1.135268 -4.77911,-0.988781 -6.81161,-2.691683 -2.03249,-1.721213 -2.03249,-5.017152 0,-3.33256 2.41702,-5.621407 2.43533,-2.288846 6.59188,-2.288846 7.36093,0 9.46666,5.877758 z"
       style="font-style:normal;font-variant:normal;font-weight:normal;font-stretch:normal;font-size:37.50046158px;font-family:'Franklin Gothic Demi';-inkscape-font-specification:'Franklin Gothic Demi, Normal';font-variant-ligatures:normal;font-variant-caps:normal;font-variant-numeric:normal;font-feature-settings:normal;text-align:start;writing-mode:lr-tb;text-anchor:start;fill:#000000;stroke-width:0.93751156"
       id="path4533" />
  </g>
</svg>
