<?xml version="1.0" encoding="UTF-8" standalone="no"?>
<!-- Created with Inkscape (http://www.inkscape.org/) -->
<svg id="svg2" xmlns:rdf="http://www.w3.org/1999/02/22-rdf-syntax-ns#" xmlns="http://www.w3.org/2000/svg" height="40.576mm" width="37.326mm" version="1.1" xmlns:cc="http://creativecommons.org/ns#" xmlns:dc="http://purl.org/dc/elements/1.1/" viewBox="0 0 132.25641 143.775">
 <defs id="defs4">
  <clipPath id="clipPath4355" clipPathUnits="userSpaceOnUse">
   <rect id="rect4357" opacity="0.07" height="167.18" width="177.28" stroke="#000" y="596.78" x="244.96" fill="none"/>
  </clipPath>
 </defs>
 <metadata id="metadata7">
  <rdf:RDF>
   <cc:Work rdf:about="">
    <dc:format>image/svg+xml</dc:format>
    <dc:type rdf:resource="http://purl.org/dc/dcmitype/StillImage"/>
    <dc:title/>
   </cc:Work>
  </rdf:RDF>
 </metadata>
 <g id="layer1" transform="translate(-289.99 -609.96)">
  <path id="path3337-6" d="m518.23 507.36-21.582-39.247h0.207v-36.316c0-7.426-6.041-13.467-13.467-13.467h-122.48c-7.426 0-13.467 6.041-13.467 13.467v36.316h0.207l-21.583 39.247h192.17zm-143.5-52.24c0-4.354 3.543-7.897 7.897-7.897h77.615c5.135 0 9.313 4.177 9.313 9.312v1.68c0 5.134-4.178 9.312-9.313 9.312h-76.2c-5.135 0-9.312-4.177-9.312-9.312v-3.095zm-17.96 12.994h13.091c3.133 4.474 8.316 7.412 14.181 7.412h76.201c5.864 0 11.048-2.938 14.181-7.412h13.091l17.183 31.247h-165.11l17.183-31.247zm162.53 45.606v36.763c0 6.408-5.213 11.622-11.621 11.622h-171.07c-6.408-0.001-11.622-5.214-11.622-11.623v-36.763h194.31z"/>
  <g id="g4342" transform="matrix(-1 0 0 1 712.23 0)" clip-path="url(#clipPath4355)">
   <path id="path3337" d="m551.8 698.99-21.582-39.247h0.207v-36.316c0-7.426-6.041-13.467-13.467-13.467h-122.48c-7.426 0-13.467 6.041-13.467 13.467v36.316h0.207l-21.583 39.247h192.17zm-143.5-52.24c0-4.354 3.543-7.897 7.897-7.897h77.615c5.135 0 9.313 4.177 9.313 9.312v1.68c0 5.134-4.178 9.312-9.313 9.312h-76.2c-5.135 0-9.312-4.177-9.312-9.312v-3.095zm-17.96 12.994h13.091c3.133 4.474 8.316 7.412 14.181 7.412h76.201c5.864 0 11.048-2.938 14.181-7.412h13.091l17.183 31.247h-165.11l17.183-31.247zm162.53 45.606v36.763c0 6.408-5.213 11.622-11.621 11.622h-171.07c-6.408-0.001-11.622-5.214-11.622-11.623v-36.763h194.31z"/>
   <path id="path3337-9" d="m483.23 698.99-21.582-39.247h0.207v-36.316c0-7.426-6.041-13.467-13.467-13.467h-122.48c-7.426 0-13.467 6.041-13.467 13.467v36.316h0.207l-21.583 39.247h192.17zm-143.5-52.24c0-4.354 3.543-7.897 7.897-7.897h77.615c5.135 0 9.313 4.177 9.313 9.312v1.68c0 5.134-4.178 9.312-9.313 9.312h-76.2c-5.135 0-9.312-4.177-9.312-9.312v-3.095zm-17.96 12.994h13.091c3.133 4.474 8.316 7.412 14.181 7.412h76.201c5.864 0 11.048-2.938 14.181-7.412h13.091l17.183 31.247h-165.11l17.183-31.247zm162.53 45.606v36.763c0 6.408-5.213 11.622-11.621 11.622h-171.07c-6.408-0.001-11.622-5.214-11.622-11.623v-36.763h194.31z"/>
   <rect id="rect3446" fill-rule="evenodd" height="24.526" width="175.54" y="666.41" x="334.82" fill="#fff"/>
   <rect id="rect4248" height="23.739" width="41.164" y="637.19" x="400.02"/>
   <g fill="#fff">
    <ellipse id="path4269" rx="8.5714" ry="10.179" cy="648.97" cx="400.18"/>
    <ellipse id="path4269-3" rx="8.5714" ry="10.179" cy="648.97" cx="347.14"/>
    <ellipse id="path4269-0" rx="8.5714" ry="10.179" cy="648.97" cx="494.91"/>
    <ellipse id="path4269-3-4" rx="8.5714" ry="10.179" cy="648.97" cx="441.88"/>
    <rect id="rect4304" height="20.329" width="53.286" y="638.83" x="346.99"/>
    <rect id="rect4304-8" height="20.329" width="54.422" y="638.77" x="441.06"/>
    <rect id="rect4321" height=".50508" width="179.05" y="666.99" x="332.09"/>
   </g>
  </g>
 </g>
</svg>
