<?xml version="1.0" encoding="iso-8859-1"?>
<!-- Generator: Adobe Illustrator 18.0.0, SVG Export Plug-In . SVG Version: 6.00 Build 0)  -->
<!DOCTYPE svg PUBLIC "-//W3C//DTD SVG 1.1//EN" "http://www.w3.org/Graphics/SVG/1.1/DTD/svg11.dtd">
<svg version="1.1" id="Capa_1" xmlns="http://www.w3.org/2000/svg" xmlns:xlink="http://www.w3.org/1999/xlink" x="0px" y="0px"
	 viewBox="0 0 486.863 486.863" style="enable-background:new 0 0 486.863 486.863;" xml:space="preserve">
<path d="M398.759,313.766c-3.488-9.47-11.23-17.197-21.582-20.276l-54.488-16.242v0.008l-18.485-5.513
	c0.845-0.954,1.752-1.822,2.581-2.801l40.459,6.162l2.721,0.204c4.975,0,9.791-2.064,13.264-5.7
	c4.096-4.325,5.817-10.393,4.613-16.242l-9.274-44.884c2.048-3.417,3.831-7.125,5.223-11.113
	c4.693-13.427,4.487-27.732-0.534-38.324c1.852-9.144,3.475-21.688,3.475-30.411C366.73,57.701,311.413,0,243.429,0
	c-67.984,0-123.285,57.701-123.285,128.634c0,8.9,1.495,21.48,3.396,30.68c-0.949,1.996-1.757,4.116-2.364,6.394
	c-2.549,9.633-1.893,20.879,1.877,31.653c1.393,3.987,3.175,7.703,5.225,11.127l-9.274,44.894
	c-1.188,5.833,0.531,11.901,4.66,16.256c3.44,3.605,8.257,5.669,13.231,5.669l43.133-6.42c0.829,1.001,1.768,1.885,2.628,2.855
	l-18.486,5.513v-0.008L109.68,293.49c-10.337,3.08-18.079,10.807-21.581,20.276c-1.847,4.997-2.379,10.47-1.596,16.015
	c0.125,0.922,0.142,1.845,0.345,2.767l6.646,29.263l1.486,6.545c0.735,3.212,1.658,6.342,2.58,9.47
	c3.363,11.338,7.976,22.043,13.669,32.029c3.159,5.559,6.569,10.94,10.37,16.015c1.86,2.479,3.862,4.84,5.848,7.194
	c28.213,33.202,70.081,53.8,115.982,53.8c6.396,0,12.668-0.532,18.893-1.307c14.856-1.853,29.136-5.77,42.445-11.643
	c9.852-4.34,19.127-9.751,27.791-16.015c12.387-8.97,23.476-19.706,32.718-32.029c3.8-5.075,7.21-10.456,10.369-16.015
	c5.692-9.987,10.29-20.691,13.653-32.029c0.922-3.128,1.845-6.257,2.58-9.47l1.485-6.545l6.646-29.263
	c0.203-0.922,0.22-1.845,0.36-2.767C401.138,324.236,400.606,318.763,398.759,313.766z M351.623,258.582
	c-0.44,0.454-1.033,0.711-1.659,0.711l-32.421-4.918c3.816-5.747,7.21-11.675,10.308-17.672c1.204-2.33,2.501-4.654,3.597-6.984
	c1.157-0.218,2.298-0.61,3.44-0.977c3.596-1.142,7.101-2.933,10.4-5.349l6.866,33.195
	C352.31,257.324,352.092,258.073,351.623,258.582z M243.429,16.015c59.163,0,107.286,50.524,107.286,112.619
	c0,4.012-0.22,8.062-0.657,12.136c-7.146-4.402-15.217-8.358-24.116-11.846l-5.849-37.582c-0.594-3.832-3.863-6.686-7.742-6.771
	h-0.17c-3.817,0-7.118,2.689-7.853,6.443l-5.849,29.434c-20.331-4.755-42.399-6.866-63.902-6.014l-9.103-59.109
	c-0.594-3.911-3.972-6.787-7.913-6.787h-0.156c-4.004,0.077-7.336,3.104-7.805,7.091l-7.147,61.964
	c-2.096,0.359-4.16,0.749-6.225,1.164l-4.254-27.408c-0.594-3.84-3.862-6.694-7.741-6.779h-0.172c-3.816,0-7.117,2.689-7.852,6.451
	l-6.928,34.837c-12.058,4.074-23.053,9.125-32.467,14.911c-0.439-4.074-0.656-8.132-0.656-12.136
	C136.159,66.539,184.28,16.015,243.429,16.015z M136.894,259.293c-0.626,0-1.22-0.258-1.627-0.681
	c-0.501-0.539-0.719-1.289-0.578-2.002l6.895-33.288c3.238,2.362,6.679,4.136,10.245,5.294c1.172,0.383,2.36,0.79,3.551,1.023
	c1.109,2.386,2.438,4.763,3.673,7.147c3.081,5.967,6.461,11.87,10.261,17.587L136.894,259.293z M168.141,218.991
	c-1.268-2.924-4.474-4.809-7.663-4.809c-7.086,0-17.313-7.742-22.316-22.091c-2.676-7.679-3.223-15.796-1.503-22.286
	c0.844-3.158,2.987-8.719,7.991-10.462c0.501-0.179,1.486-0.282,2.143-0.352c3.941-0.407,6.977-3.628,7.164-7.576
	c0-0.007,0.001-0.015,0.001-0.022c0.056-1.157,0.739-2.193,1.779-2.703c6.963-3.415,14.632-6.457,22.866-9.013
	c2.645-0.821,4.662-2.948,5.365-5.606c0.359,0.358,0.751,0.687,1.188,0.977c1.847,1.243,4.099,1.666,6.304,1.158
	c6.256-1.47,12.668-2.777,19.362-3.716c3.612-0.499,6.426-3.385,6.85-7.013l1.017-8.923l1.156,7.468
	c0.642,4.098,4.395,7.046,8.431,6.773c24.882-1.596,50.984,0.797,74.287,7.218c2.143,0.602,4.426,0.273,6.334-0.908
	c0.703-0.429,1.329-0.969,1.861-1.587l0.078,0.485c0.453,2.886,2.438,5.292,5.176,6.293c5.435,1.972,10.449,4.145,15.161,6.458
	c1.005,0.494,1.668,1.495,1.728,2.614c0.001,0.016,0.002,0.031,0.002,0.047c0.188,3.949,3.223,7.162,7.147,7.576
	c0.656,0.071,1.642,0.181,2.189,0.369c3.363,1.172,5.396,4.152,6.491,6.442c3.269,6.765,3.253,16.836-0.063,26.298
	c-4.974,14.341-15.201,22.083-22.474,22.083c-3.159,0.274-6.192,1.845-7.476,4.801c-14.544,33.329-41.96,68.931-75.288,68.931
	C210.086,287.914,182.67,252.311,168.141,218.991z M195.854,284.52c13.888,11.629,29.857,19.409,47.575,19.409
	c17.704,0,33.671-7.78,47.574-19.409l29.198,8.704c-1.891,7.374-5.034,14.16-8.819,20.542c-3.441,5.825-7.396,11.276-12.167,16.015
	c-14.312,14.263-33.938,23.162-55.77,23.162c-21.849,0-41.477-8.899-55.785-23.162c-4.756-4.739-8.727-10.19-12.168-16.015
	c-3.784-6.382-6.929-13.177-8.836-20.542L195.854,284.52z M102.47,329.014c-1.595-7.045,4.38-15.248,4.38-15.248h50.25
	c2.658,5.708,5.989,10.994,9.665,16.015h-64.12L102.47,329.014z M243.429,470.848c-4.004,0-7.961-0.173-11.887-0.509
	c-9.569-0.814-18.83-2.721-27.76-5.411c-2.939-0.883-5.864-1.837-8.726-2.917c-3.16-1.188-6.131-2.705-9.181-4.113h115.673
	C283.861,466.216,264.156,470.848,243.429,470.848z M344.726,425.869H142.227c-4.505-4.997-8.617-10.346-12.355-16.015h227.156
	C353.311,415.519,349.2,420.872,344.726,425.869z M376.254,364.813c-1.013,4.448-2.263,8.78-3.697,13.012H114.435
	c-1.424-4.262-2.815-8.547-3.83-13.021l-0.681-2.994h97.973c11.025,4.465,22.958,7.147,35.548,7.147
	c12.605,0,24.521-2.682,35.564-7.147h97.926L376.254,364.813z M384.388,328.998l-0.178,0.783h-64.085
	c3.675-5.02,6.99-10.307,9.665-16.015h50.217C380.007,313.766,385.983,321.945,384.388,328.998z"/>
<g>
</g>
<g>
</g>
<g>
</g>
<g>
</g>
<g>
</g>
<g>
</g>
<g>
</g>
<g>
</g>
<g>
</g>
<g>
</g>
<g>
</g>
<g>
</g>
<g>
</g>
<g>
</g>
<g>
</g>
</svg>
