<?xml version="1.0" encoding="iso-8859-1"?>
<!-- Generator: Adobe Illustrator 18.0.0, SVG Export Plug-In . SVG Version: 6.00 Build 0)  -->
<!DOCTYPE svg PUBLIC "-//W3C//DTD SVG 1.1//EN" "http://www.w3.org/Graphics/SVG/1.1/DTD/svg11.dtd">
<svg version="1.1" id="Capa_1" xmlns="http://www.w3.org/2000/svg" xmlns:xlink="http://www.w3.org/1999/xlink" x="0px" y="0px"
	 viewBox="0 0 478.417 478.417" style="enable-background:new 0 0 478.417 478.417;" xml:space="preserve">
<g>
	<path d="M224.074,278.881v16.931h30.286v-16.931c-5.005,0.955-10.056,1.494-15.147,1.494
		C234.121,280.375,229.07,279.835,224.074,278.881z"/>
	<path d="M380.952,254.647l-24.311-7.256l-31.576-9.407v0.008l-6.185-1.845c-4.004,5.013-8.203,9.594-12.535,13.809l15.912,4.747
		c-10.211,56.294-29.565,118.164-53.415,148.495l-14.388-96.175h-30.489l-14.381,96.137
		c-23.843-30.348-43.188-92.188-53.393-148.465l15.882-4.739c-4.332-4.215-8.531-8.797-12.535-13.817l-62.081,18.508
		c-13.872,4.145-23.396,16.907-23.396,31.397v27.22c0,91.192,74.291,165.152,165.152,165.152h0.008h0.008
		c0.046,0,0.085-0.008,0.133-0.008c51.462-0.069,98.97-25.628,126.42-59.133c0-0.008,0-0.008,0-0.008
		c24.054-28.691,38.575-65.63,38.575-106.004v-27.22C404.356,271.554,394.832,258.792,380.952,254.647z M124.388,365.679
		c-1.698,11.433-3.917,22.294-6.35,32.851c-17.04-24.155-27.158-53.534-27.158-85.266v-27.22c0-6.99,4.692-13.27,11.393-15.264
		l23.365-6.968C130.136,291.26,130.144,326.996,124.388,365.679z M387.536,313.264c0,31.661-10.056,60.97-27.025,85.086
		c-2.369-10.307-4.527-20.949-6.185-32.124c-5.771-38.887-5.731-74.811-1.158-102.305l22.975,6.859
		c6.702,1.994,11.392,8.273,11.392,15.264V313.264z"/>
	<path d="M345.614,101.967C339.883,44.298,294.239,0,239.212,0c-55.035,0-100.67,44.298-106.418,101.967
		c-8.368,3.379-14.686,11.143-17.43,21.497c-2.588,9.806-1.908,21.231,1.915,32.163c5.998,17.273,18.8,29.965,32.734,32.805
		c17.289,37.112,49.13,75.115,89.199,75.115c40.037,0,71.847-37.948,89.161-75.037c13.723-2.682,26.719-15.453,32.795-32.883
		C369.387,131.995,362.537,108.732,345.614,101.967z M345.278,150.098c-5.005,14.357-15.186,22.107-22.411,22.107
		c-0.008,0-0.008,0-0.008,0c-3.228,0.266-6.513,1.939-7.875,5.051c-14.637,33.587-42.226,69.47-75.772,69.47
		c-33.554,0-61.143-35.884-75.78-69.47c-1.345-3.073-4.724-5.051-8.078-5.051c-7.031,0-17.189-7.749-22.185-22.107
		c-2.689-7.702-3.253-15.842-1.533-22.332c0.821-3.136,2.94-8.634,7.828-10.33c0.516-0.189,1.571-0.29,2.073-0.336
		c2.735-0.274,4.817-1.442,6.145-3.659l24.884-41.274c5.051-8.43,8.194-17.86,9.18-27.643l0.328-3.221
		c12.621,6.592,33.328,10.962,57.139,10.962c23.851,0,44.58-4.387,57.162-11.002l0.328,3.261c0.986,9.783,4.13,19.213,9.181,27.643
		c0,0,17.849,29.585,23.972,39.799c1.569,2.618,3.842,4.819,7.024,5.133c0.501,0.046,1.557,0.147,2.08,0.336
		C346.412,120.024,350.846,134.091,345.278,150.098z"/>
</g>
<g>
</g>
<g>
</g>
<g>
</g>
<g>
</g>
<g>
</g>
<g>
</g>
<g>
</g>
<g>
</g>
<g>
</g>
<g>
</g>
<g>
</g>
<g>
</g>
<g>
</g>
<g>
</g>
<g>
</g>
</svg>
